<?xml version="1.0" encoding="UTF-8" standalone="no"?>
<svg width="512px" height="512px" viewBox="0 0 512 512" version="1.1" xmlns="http://www.w3.org/2000/svg" xmlns:xlink="http://www.w3.org/1999/xlink" xmlns:sketch="http://www.bohemiancoding.com/sketch/ns">
    <!-- Generator: Sketch 3.3.3 (12081) - http://www.bohemiancoding.com/sketch -->
    <title>linkedin</title>
    <desc>Created with Sketch.</desc>
    <defs></defs>
    <g id="Page-1" stroke="none" stroke-width="1" fill="deepskyblue" fill-rule="evenodd" sketch:type="MSPage">
        <g id="linkedin" sketch:type="MSLayerGroup" fill="deepskyblue">
            <path d="M256,0 C114.609,0 0,114.609 0,256 C0,397.391 114.609,512 256,512 C397.391,512 512,397.391 512,256 C512,114.609 397.391,0 256,0 L256,0 Z M256.5,496 C124.223928,496 17,388.776072 17,256.5 C17,124.223928 124.223928,17 256.5,17 C388.776072,17 496,124.223928 496,256.5 C496,388.776072 388.776072,496 256.5,496 L256.5,496 Z" id="Shape" sketch:type="MSShapeGroup"></path>
            <path d="M128.094,383.891 L176.094,383.891 L176.094,191.891 L128.094,191.891 L128.094,383.891 L128.094,383.891 Z M320.094,191.891 C279,192.579 258.782,222.532 256.094,223.891 L256.094,191.891 L208.094,191.891 L208.094,383.891 L256.094,383.891 L256.094,271.891 C256.094,267.782 266.219,234.891 304.094,239.891 C324.438,241.219 335.406,268.125 336.094,271.891 L336.094,383.891 L383.906,384.11 L383.906,251.188 C382.219,232 372.625,192.578 320.094,191.891 L320.094,191.891 Z M152.094,127.891 C138.844,127.891 128.094,138.625 128.094,151.891 C128.094,165.157 138.844,175.891 152.094,175.891 C165.344,175.891 176.094,165.157 176.094,151.891 C176.094,138.625 165.344,127.891 152.094,127.891 L152.094,127.891 Z" id="Shape" sketch:type="MSShapeGroup"></path>
        </g>
    </g>
</svg>