<?xml version="1.0" encoding="UTF-8" standalone="no"?>
<svg width="566px" height="565px" viewBox="0 0 566 565" version="1.1" xmlns="http://www.w3.org/2000/svg" xmlns:xlink="http://www.w3.org/1999/xlink" xmlns:sketch="http://www.bohemiancoding.com/sketch/ns">
    <!-- Generator: Sketch 3.3.3 (12081) - http://www.bohemiancoding.com/sketch -->
    <title>Star-1</title>
    <desc>Created with Sketch.</desc>
    <defs></defs>
    <g id="Page-1" stroke="none" stroke-width="1" fill="white" fill-rule="evenodd" sketch:type="MSPage">
        <g id="logo" sketch:type="MSLayerGroup" transform="translate(100.000000, 100.000000)">
            <g id="Welcome" sketch:type="MSShapeGroup">
                <g id="Desktop-HD">
                    <path d="M182.933594,0.438232 L165.425781,115.976562 L139.722657,80.886719 L139.722659,127.140877 L70.589844,64.53125 L124.78125,143.410156 L80.523437,136.460938 L111.535156,166.429565 L0.86624,182.40625 L0.40625,182.40625 L0.630674,182.440257 L0.40625,182.472656 L0.844482,182.472656 L116.382812,199.980469 L81.292969,225.683593 L127.547127,225.683591 L64.9375,294.816406 L143.816406,240.625 L136.867187,284.882812 L166.835815,253.871094 L182.8125,364.54001 L182.8125,365 L182.846507,364.775576 L182.878906,365 L182.878906,364.561768 L200.386719,249.023437 L226.089843,284.113281 L226.089841,237.859123 L295.222656,300.46875 L241.03125,221.589844 L285.289062,228.539062 L254.277344,198.570435 L364.94626,182.59375 L365.40625,182.59375 L365.181826,182.559743 L365.40625,182.527344 L364.968018,182.527344 L249.429687,165.019531 L284.519531,139.316407 L238.265373,139.316409 L300.875,70.183594 L221.996094,124.375 L228.945312,80.117187 L198.976684,111.128906 L183,0.45999 L183,0 L182.965993,0.224424 L182.933594,0 L182.933594,0.438232 L182.933594,0.438232 Z M182.933594,182.472656 L182.878906,182.472656 L182.878906,182.527344 L182.933594,182.527344 L182.933594,182.472656 L182.933594,182.472656 Z" id="Star-1"></path>
                </g>
            </g>
        </g>
    </g>
</svg>